<?xml version="1.0" encoding="utf-8"?>
<!-- Generator: Adobe Illustrator 24.1.2, SVG Export Plug-In . SVG Version: 6.00 Build 0)  -->
<svg version="1.1" id="Layer_1" xmlns="http://www.w3.org/2000/svg" xmlns:xlink="http://www.w3.org/1999/xlink" x="0px" y="0px"
	 viewBox="0 0 275 82" style="enable-background:new 0 0 275 82;" xml:space="preserve">
<style type="text/css">
	.st0{fill:#AAABAD;}
</style>
<desc>Created with Sketch.</desc>
<path id="Page-1_1_" class="st0" d="M255.6,54.9c-0.9,0-1.7-0.8-1.7-1.7c0-0.9,0.8-1.7,1.7-1.7c0.9,0,1.7,0.8,1.7,1.7
	C257.3,54.2,256.5,54.9,255.6,54.9L255.6,54.9z M255.6,51.2c-1.1,0-2,0.9-2,2s0.9,2,2,2s2-0.9,2-2S256.7,51.2,255.6,51.2L255.6,51.2
	z M255.2,53.1v-0.6h0.4c0.2,0,0.5,0.1,0.5,0.3c0,0.3-0.3,0.3-0.5,0.3H255.2z M256.4,52.8c0-0.5-0.4-0.7-0.8-0.7h-0.8v2.3h0.4v-0.9
	h0.3l0.5,0.9h0.5l-0.6-1C256.2,53.3,256.4,53.1,256.4,52.8L256.4,52.8z M205.8,51.6c-3.2,0-4.6-2.7-4.6-5.2c0-2.5,1.4-5.1,4.6-5.1
	c3.2,0,4.6,2.6,4.6,5.1C210.4,48.9,209,51.6,205.8,51.6L205.8,51.6z M205.8,37.3c-5.5,0-9.6,3.8-9.6,9.1c0,5.5,4.1,9.3,9.6,9.3
	c5.5,0,9.6-3.9,9.6-9.3C215.4,41.1,211.4,37.3,205.8,37.3L205.8,37.3z M151.6,37.8h-6.3L139,45h-0.1V28.1H134v27.1h4.9v-8.6h0.1
	l6.5,8.6h6.4l-7.6-9.5L151.6,37.8z M162.9,51.6c-2.9,0-4.7-2.6-4.7-5.1c0-2.5,1.8-5.2,4.7-5.2c3.2,0,4.7,2.6,4.7,5.1
	C167.6,49,165.9,51.6,162.9,51.6L162.9,51.6z M163.8,37.3c-2.2,0-3.9,1-5.4,2.4h-0.1V28.1h-4.9v27.1h4.7v-2.5h0.1
	c1.1,1.8,3.3,3,5.5,3c5,0,8.8-3.9,8.8-9.3C172.6,41.1,168.8,37.3,163.8,37.3L163.8,37.3z M236.1,37.8h-6.3l-6.3,7.2h-0.1V28.1h-4.9
	v27.1h4.9v-8.6h0.1l6.5,8.6h6.4l-7.6-9.5L236.1,37.8z M245.3,44.5c-2.5-0.6-3.4-0.9-3.4-1.9c0-1.4,1.8-1.7,2.6-1.7
	c1.5,0,3.2,0.9,3.9,1.7l2.9-2.7c-1.3-1.7-3.9-2.6-6.7-2.6c-3.5,0-7.2,1.8-7.2,5.7c0,3.4,2.7,4.4,5.3,5c2.8,0.6,3.7,1.1,3.7,2.2
	c0,1.6-1.9,1.9-2.5,1.9c-1.6,0-3.4-0.9-4.4-2.1l-3,3c1.6,1.8,4.4,2.8,7.2,2.8c4.8,0,7.6-2.2,7.6-6C251.3,46.2,247.8,45,245.3,44.5
	L245.3,44.5z M184.4,51.6c-3.2,0-4.6-2.7-4.6-5.2c0-2.5,1.4-5.1,4.6-5.1c3.2,0,4.6,2.6,4.6,5.1C189,48.9,187.6,51.6,184.4,51.6
	L184.4,51.6z M184.4,37.3c-5.5,0-9.6,3.8-9.6,9.1c0,5.5,4.1,9.3,9.6,9.3c5.5,0,9.6-3.9,9.6-9.3C194,41.1,189.9,37.3,184.4,37.3
	L184.4,37.3z M73.3,51.6c-3,0-4.7-2.6-4.7-5.2c0-2.5,1.6-5.1,4.7-5.1c2.9,0,4.7,2.7,4.7,5.2C78,49,76.3,51.6,73.3,51.6L73.3,51.6z
	 M78.1,40h-0.1c-0.7-0.8-2.6-2.7-5.6-2.7c-5,0-8.8,3.8-8.8,9.1c0,5.4,3.5,9.3,8.6,9.3c2.3,0,4.4-1.2,5.7-2.6h0.1v10.7h4.9v-26h-4.7
	V40z M98.6,47.3c0,2.1-1.4,4.3-3.9,4.3c-1.9,0-3-1.4-3-4.2v-9.6h-4.9v10.8c0,3.6,1.8,7.1,6.7,7.1c2.3,0,4.2-1.8,5.2-3.1h0.1v2.6h4.7
	V37.8h-4.9V47.3z M107.5,55.2h4.9V37.8h-4.9V55.2z M125,51.6c-3,0-4.5-2.6-4.5-5.2c0-2.5,1.6-5,4.3-5c1.3,0,2.9,0.6,3.5,1.5l3.1-3.1
	c-1.5-1.6-3.9-2.5-6.6-2.5c-5.5,0-9.4,3.9-9.4,9.2c0,5.4,3.9,9.2,9.5,9.2c2.7,0,5.1-0.8,6.6-2.3l-3.1-3.2
	C127.8,51,126.4,51.6,125,51.6L125,51.6z M17,38.3C17,27.1,26.2,18,37.5,18c11.3,0,20.5,9.1,20.5,20.3c0,11.2-9.2,20.3-20.5,20.3
	C26.2,58.6,17,49.5,17,38.3 M44.4,30.4h-1.1v2.9h1.1c2.8,0,5,2.2,5,5c0,2.7-2.3,5-5,5h-2.7V27.9c0-1.6-1.3-2.9-3-2.9v21.2h5.7
	c4.4,0,8-3.5,8-7.9S48.8,30.4,44.4,30.4 M22.7,38.3c0,4.4,3.6,7.9,8,7.9h1.1v-2.9h-1.1c-2.8,0-5-2.2-5-5c0-2.7,2.3-5,5-5h2.7v15.3
	c0,1.6,1.3,2.9,3,2.9V30.4h-5.7C26.3,30.4,22.7,33.9,22.7,38.3 M94.9,28.7c0,1.2-0.7,2.4-2.1,2.4c-1.4,0-1.7-1.3-1.7-2.4v-4.9h-2.2
	v5.5c0,1.8,1,3.6,3.3,3.6c1.3,0,2.4-0.8,2.8-1.7h0v1.4h2.1v-8.9h-2.2V28.7z M80,25.7h2.5v6.9h2.2v-6.9h2.5v-2H80V25.7z M99.4,32.7
	h2.2v-8.9h-2.2V32.7z M103.3,23.8v2h2.5v6.9h2.2v-6.9h2.5v-2H103.3z M106.9,22.6c0.7,0,1.4-0.6,1.4-1.3s-0.6-1.3-1.4-1.3
	s-1.4,0.6-1.4,1.3S106.2,22.6,106.9,22.6L106.9,22.6z M66.1,32.7h2.2v-8.9h-2.2V32.7z M75.6,23.5c-1.3,0-2.4,0.8-2.8,1.7h0v-1.4
	h-2.1v8.9h2.2v-4.9c0-1.2,0.7-2.4,2.1-2.4c1.4,0,1.7,1.3,1.7,2.4v4.9h2.2v-5.5C78.9,25.3,77.9,23.5,75.6,23.5L75.6,23.5z M83.7,22.6
	c0.7,0,1.4-0.6,1.4-1.3s-0.6-1.3-1.4-1.3s-1.4,0.6-1.4,1.3S82.9,22.6,83.7,22.6L83.7,22.6z"/>
</svg>
