<?xml version="1.0" encoding="utf-8"?>
<!-- Generator: Adobe Illustrator 24.1.2, SVG Export Plug-In . SVG Version: 6.00 Build 0)  -->
<svg version="1.1" id="Layer_1" xmlns="http://www.w3.org/2000/svg" xmlns:xlink="http://www.w3.org/1999/xlink" x="0px" y="0px"
	 viewBox="0 0 833.5 250.8" style="enable-background:new 0 0 833.5 250.8;" xml:space="preserve">
<style type="text/css">
	.st0{fill:#AAABAD;}
</style>
<g>
	<g>
		<g>
			<path class="st0" d="M361.4,167.9c-4.5,0-9-0.5-13.4-1.4s-8.4-2.5-11.9-4.7s-6.4-5.1-8.7-8.7c-2.3-3.6-3.1-9.2-3.1-9.4
				c-0.2-1.5,0.2-2.9,1.1-4s2.3-1.7,3.8-1.7h12c2.9,0,5.5,2.3,5.9,5.1c0.1,0.2,0.3,0.6,0.8,1.5c0.8,1.4,1.9,2.6,3.2,3.5
				c1.3,0.9,2.9,1.6,4.6,2.1c1.8,0.5,3.7,0.7,5.6,0.7c1.4,0,2.9-0.2,4.4-0.5s2.8-0.8,4-1.5c1.2-0.6,2.1-1.5,2.9-2.5
				c0.7-1,1.1-2.2,1.1-3.8c0-0.9,0-3.7-5.3-5.7c-4.1-1.5-13.4-3.7-13.5-3.8c-2.2-0.5-5.7-1.4-7.8-1.9c-0.1,0-2.2-0.6-5.2-1.5
				c-3-1-5.8-2.3-8.2-3.9c-2.5-1.7-4.5-3.8-6-6.3c-1.5-2.6-2.3-5.7-2.3-9.3c0-5.2,1-9.6,3.1-13s4.8-6.1,8.2-8
				c3.3-1.9,7.1-3.3,11.2-4c4-0.8,8.2-1.1,12.5-1.1c4.2,0,8.4,0.4,12.4,1.2c4.1,0.8,7.8,2.2,11,4.2c3.3,2,6,4.7,8.1,8
				c2.2,3.3,3.1,8.2,3.1,8.4c0.3,1.5-0.1,3-1,4c-0.9,1.1-2.3,1.7-3.8,1.7h-12c-2.9,0-5.8-2.2-6.5-5c0,0-0.7-2.3-2.8-3.4
				c-2.5-1.3-5.6-2-9.1-2c-1.1,0-2.4,0.1-3.7,0.2c-1.2,0.1-2.4,0.4-3.3,0.8s-1.7,1-2.3,1.7c-0.6,0.7-0.8,1.6-0.8,2.8
				c0,1.5,0.5,2.6,1.6,3.5c1.2,1.1,2.9,1.9,4.9,2.6c2.2,0.7,4.7,1.4,7.5,2s5.7,1.2,8.8,1.9c3.1,0.7,6.2,1.6,9.1,2.6
				c3,1,5.8,2.4,8.2,4.1c2.4,1.8,4.4,4,5.9,6.6c1.5,2.7,2.3,5.9,2.3,9.7c0,5.3-1.1,9.8-3.3,13.5c-2.1,3.6-5,6.6-8.4,8.7
				c-3.4,2.2-7.4,3.7-11.7,4.6C370.3,167.5,365.9,167.9,361.4,167.9z"/>
		</g>
		<g>
			<path class="st0" d="M462.6,166c-3.1,0-5.5-2.5-5.5-5.5v-35.3c0-2.2-0.2-5.7-0.4-7.9c-0.2-1.9-0.9-7.2-2.4-9.5
				c-1.7-2.7-4.7-4-9.3-4c-5.3,0-9,1.5-11.3,4.5c-1.9,2.5-2.9,9.6-3.2,12.1c-0.2,2.2-0.4,5.7-0.4,7.9v32.2c0,3.1-2.5,5.5-5.5,5.5
				h-13c-3.1,0-5.5-2.5-5.5-5.5v-98c0-3.1,2.5-5.5,5.5-5.5h13c3.1,0,5.5,2.5,5.5,5.5c0,0,0,32.1,0,32.2c0.1-0.1,0.2-0.2,0.2-0.3
				c0.2-0.2,3.9-4.8,8.3-7c4.4-2.1,8.7-3.2,12.8-3.2c5.8,0,10.7,0.8,14.5,2.4s6.9,3.9,9.2,6.9c2.2,2.9,3.8,6.4,4.7,10.6
				c0.9,4,1.1,9,1.1,9.2c0.1,2.2,0.2,5.9,0.2,8.1v39.2c0,3.1-2.5,5.5-5.5,5.5L462.6,166L462.6,166z"/>
		</g>
		<g>
			<path class="st0" d="M498.7,166c-3.1,0-5.5-2.5-5.5-5.5V91.7c0-3.1,2.5-5.5,5.5-5.5h13c3.1,0,5.5,2.5,5.5,5.5v68.8
				c0,3.1-2.5,5.5-5.5,5.5H498.7z M498.7,77.3c-3.1,0-5.5-2.5-5.5-5.5v-9.3c0-3.1,2.5-5.5,5.5-5.5h13c3.1,0,5.5,2.5,5.5,5.5v9.3
				c0,3.1-2.5,5.5-5.5,5.5H498.7z"/>
		</g>
		<g>
			<path class="st0" d="M534.8,192.9c-3.1,0-5.5-2.5-5.5-5.5V91.7c0-3.1,2.5-5.5,5.5-5.5h12c3.1,0,5.5,2.5,5.5,5.5c0,0,0,1.8,0,1.9
				c0.1-0.1,0.1-0.1,0.2-0.2c0.1-0.2,3.6-4.3,7.8-6.3s8.8-3,13.7-3c6.3,0,11.7,1.2,16.3,3.6c4.5,2.4,8.4,5.6,11.3,9.5
				c3,3.9,5.2,8.5,6.6,13.7c1.4,5.1,2.1,10.5,2.1,16.1c0,5.3-0.7,10.4-2.1,15.3c-1.4,4.9-3.6,9.3-6.6,13.1
				c-2.9,3.8-6.7,6.9-11.1,9.2c-4.4,2.3-9.6,3.4-15.5,3.4c-5,0-9.6-1-13.8-3s-7.5-5.7-7.7-5.9c-0.1-0.1-0.2-0.3-0.3-0.4
				c0,0.1,0,28.7,0,28.7c0,3.1-2.5,5.5-5.5,5.5H534.8z M569.4,103c-3.2,0-5.8,0.6-7.9,1.9c-2.1,1.3-3.9,3-5.2,5.1s-2.3,4.6-2.8,7.4
				c-0.6,2.9-0.9,5.9-0.9,8.9s0.3,5.9,0.9,8.7c0.6,2.8,1.6,5.2,2.9,7.3c1.3,2,3.1,3.7,5.2,4.9c2.1,1.2,4.8,1.9,7.9,1.9
				c3.2,0,5.8-0.6,7.9-1.9c2.1-1.3,3.8-2.9,5.1-4.9c1.3-2.1,2.3-4.5,2.8-7.3c0.6-2.9,0.9-5.8,0.9-8.8c0-2.9-0.3-5.9-0.9-8.7
				c-0.6-2.8-1.6-5.3-3-7.5c-1.4-2.1-3.1-3.9-5.2-5.2C575.1,103.6,572.5,103,569.4,103z"/>
		</g>
		<g>
			<path class="st0" d="M621.9,192.9c-3.1,0-5.5-2.5-5.5-5.5V91.7c0-3.1,2.5-5.5,5.5-5.5h12c3.1,0,5.5,2.5,5.5,5.5c0,0,0,1.8,0,1.9
				c0.1-0.1,0.1-0.1,0.2-0.2c0.1-0.2,3.6-4.3,7.8-6.3s8.8-3,13.7-3c6.3,0,11.7,1.2,16.3,3.6c4.5,2.4,8.4,5.6,11.3,9.5
				c3,3.9,5.2,8.5,6.6,13.7c1.4,5.1,2.1,10.5,2.1,16.1c0,5.3-0.7,10.4-2.1,15.3c-1.4,4.9-3.6,9.3-6.6,13.1
				c-2.9,3.8-6.7,6.9-11.1,9.2c-4.4,2.3-9.6,3.4-15.5,3.4c-5,0-9.6-1-13.8-3s-7.5-5.7-7.7-5.9c-0.1-0.1-0.2-0.3-0.3-0.4
				c0,0.1,0,28.7,0,28.7c0,3.1-2.5,5.5-5.5,5.5H621.9z M656.5,103c-3.2,0-5.8,0.6-7.9,1.9c-2.1,1.3-3.9,3-5.2,5.1s-2.3,4.6-2.8,7.4
				c-0.6,2.9-0.9,5.9-0.9,8.9s0.3,5.9,0.9,8.7c0.6,2.8,1.6,5.2,2.9,7.3c1.3,2,3.1,3.7,5.2,4.9c2.1,1.2,4.8,1.9,7.9,1.9
				c3.2,0,5.8-0.6,7.9-1.9c2.1-1.3,3.8-2.9,5.1-4.9c1.3-2.1,2.3-4.5,2.8-7.3c0.6-2.9,0.9-5.8,0.9-8.8c0-2.9-0.3-5.9-0.9-8.7
				c-0.6-2.8-1.6-5.3-3-7.5c-1.4-2.1-3.1-3.9-5.2-5.2C662.2,103.6,659.6,103,656.5,103z"/>
		</g>
		<g>
			<path class="st0" d="M744,167.9c-6.2,0-11.9-1-16.9-2.9s-9.4-4.8-13-8.4c-3.6-3.6-6.4-8.1-8.4-13.2c-1.9-5.1-2.9-10.9-2.9-17.2
				s1-12.1,2.9-17.2c1.9-5.2,4.8-9.7,8.4-13.3c3.6-3.7,8-6.5,13-8.5s10.7-3,16.9-3s11.9,1,17,3s9.5,4.9,13.1,8.5
				c3.6,3.7,6.4,8.1,8.4,13.3c1.9,5.2,2.9,11,2.9,17.2c0,6.3-1,12.1-2.9,17.2c-1.9,5.1-4.8,9.6-8.4,13.2c-3.6,3.7-8,6.5-13.1,8.4
				S750.2,167.9,744,167.9z M744,103c-3.3,0-6,0.7-8.1,1.9c-2.2,1.3-3.9,3-5.2,5.1s-2.3,4.6-2.8,7.4c-0.6,2.9-0.9,5.8-0.9,8.8
				c0,3,0.3,5.9,0.9,8.7c0.6,2.7,1.5,5.2,2.9,7.4c1.3,2.1,3,3.8,5.2,5.1c2.1,1.2,4.9,1.9,8.2,1.9s6.1-0.6,8.2-1.9
				c2.2-1.3,4-3,5.3-5.1c1.3-2.2,2.3-4.7,2.9-7.4c0.6-2.8,0.9-5.7,0.9-8.7s-0.3-5.9-0.9-8.8c-0.6-2.8-1.5-5.2-2.8-7.4
				c-1.3-2.1-3.1-3.8-5.3-5.1C750,103.6,747.2,103,744,103z"/>
		</g>
	</g>
	<path class="st0" d="M286.5,82.4c-3.2-7.6-8.2-14.3-14.7-19.3c-6.9-5.3-15.1-8.6-23.7-9.8c-5-0.7-10.1-0.6-15.1,0.2
		c-5.2,0.8-10.1,2.5-15,4.6c-2.4,1-4.7,2.1-7.1,3.1c-7.2,4.3-15.3,6.7-23.8,6.8c-4.4,0.1-8.7-0.4-13-1.4c-2.2-0.5-4.5-1.1-6.6-1.8
		c-2.1-0.7-4.3-1.1-6.5-1.3c-5-0.4-10.1,0.2-15.1,0.8l-12.1,1.3c0,0,0,0,0-0.1h-0.4c-3.1-3.4-6.9-6-10.6-8.7
		c-1.1-0.7-2.1-1.4-3.4-1.5c-3.8,0-4.7,4.5-4.9,7.4c-0.3,3.5,0.2,7.2,1,10.7c0.3,1.3,0.7,2.7,1.3,3.9c0,0,0.6,2.6,1.6,5
		c-1.3,1.6-2.4,3.4-3.1,5.3c-0.3,0.7-0.5,1.3-0.9,1.9c-1.2,1.8-2.6,3.4-4,5c-4.7,5.5-9.8,10.7-14.8,15.9
		c-2.4,2.4-22.7,9.1-34.4,12.9c1.1-53.6,44.9-96.7,98.7-96.7c25.4,0,48.6,9.6,66.1,25.4c2.1-0.6,4.2-1.1,6.3-1.4
		c2.9-0.5,5.9-0.7,8.9-0.7c0.5,0,0.9,0,1.4,0c-20.5-22.4-49.9-36.4-82.6-36.4c-61.8,0-111.9,50.1-111.9,111.9S98.2,237.3,160,237.3
		c56.9,0,103.9-42.5,111-97.4c-0.6,0.4-1.2,0.7-1.8,1.1c-2.8,1.6-5.7,2.8-8.6,3.9c-1,0.4-1.9,0.8-2.8,1.2c-0.4,0.2-0.9,0.4-1.3,0.6
		c-9.4,43.1-46.9,75.7-92.4,77.5c9.8-14.6,29.5-43.3,35.3-47.3c7.9-5.4,15.9-10.7,24-15.7c7.5-4.6,15-9,22.9-13
		c3.4-1.7,6.8-3.4,10.3-4.8c3.7-1.6,7.5-2.9,11.1-4.9c6.4-3.6,11.9-8.7,15.8-14.8c3.7-5.9,6-12.7,6.5-19.6
		C290.6,96.5,289.3,89.2,286.5,82.4z M176.7,96.5c-3.3,2.5-8,2.6-11.5,0.4c-3.4-2.1-5.4-6.1-4.6-10c0.1-0.4,0.2-0.9,0.3-1.3
		c-0.4,1.2-0.8,2.1,0.1-0.2c0.9-2.4,0.5-1.4,0.1-0.2c1.5-3.7,5.3-6,9.2-6c4.2,0.1,8,2.7,9.5,6.6C181.2,89.7,179.9,94,176.7,96.5z"/>
</g>
</svg>
