<?xml version="1.0" encoding="utf-8"?>
<!-- Generator: Adobe Illustrator 24.1.2, SVG Export Plug-In . SVG Version: 6.00 Build 0)  -->
<svg version="1.1" id="Layer_1" xmlns="http://www.w3.org/2000/svg" xmlns:xlink="http://www.w3.org/1999/xlink" x="0px" y="0px"
	 viewBox="0 0 281 73" style="enable-background:new 0 0 281 73;" xml:space="preserve">
<style type="text/css">
	.st0{fill-rule:evenodd;clip-rule:evenodd;fill:#AAABAD;stroke:#FFFFFF;}
	.st1{fill-rule:evenodd;clip-rule:evenodd;fill:#AAABAD;}
</style>
<g>
	<g>
		<path class="st0" d="M11.1,34.6c0,4,3.7,7.2,8.2,7.2s8.2-3.2,8.2-7.2s-3.7-7.2-8.2-7.2S11.1,30.7,11.1,34.6z M15.7,34.6
			c0-1.8,1.7-3.2,3.7-3.2s3.7,1.4,3.7,3.2s-1.7,3.2-3.7,3.2C17.3,37.9,15.7,36.4,15.7,34.6z M27.5,52.7c0,4,3.7,7.2,8.2,7.2
			s8.2-3.2,8.2-7.2s-3.7-7.2-8.2-7.2C31.1,45.5,27.5,48.7,27.5,52.7z M32,52.7c0-1.8,1.7-3.2,3.7-3.2s3.7,1.5,3.7,3.2
			c0,1.8-1.7,3.2-3.7,3.2C33.6,56,32,54.5,32,52.7z"/>
		<path class="st0" d="M54.3,24.8c0-1.8-2.4-2.5-3.9-1.4c-15,11.5-30.1,23-45.1,34.5V29.4c0-2.3,0.2-4.2,2.2-5.9
			c0.7-0.6,1.7-0.9,2.5-1.2c0.2-0.1,2.1-0.4,1.2-0.3h0.2c4.4,1.4,10.4,2.1,16.1,2.1c11,0,22.8-2.5,22.8-8V8.5c0-5.5-11.8-8-22.8-8
			S4.7,3,4.7,8.5V16c0,1.3,0.6,2.4,1.8,3.4c-1.6,0.8-3,1.9-4.1,3.3c-2.8,3.5-1.6,9.6-1.6,13.7v25.9c0,1.8,2.4,2.5,3.9,1.4
			c15-11.5,30.1-23,45.1-34.5v25.3c0,2,0.4,4.3-0.4,6.2c-1,2.8-5,4.6-7.8,5.6c-9.8,3.4-21.7,3-31.1-1.2c-2.6-1.2-4.8,2.5-2.3,3.4
			C18.6,72.4,28,72.9,39.4,71c5.8-1,14.5-5.1,14.8-11.4C54.8,48,54.3,36.4,54.3,24.8z M27.5,4.5c12,0,18.3,3,18.3,4s-6.3,4-18.3,4
			s-18.3-3-18.3-4S15.5,4.5,27.5,4.5z M9.2,13.6c4.4,2,11.5,3,18.3,3s13.9-1,18.3-3v2.5c0,1-6.3,4-18.3,4s-18.3-3-18.3-4
			C9.2,16.1,9.2,13.6,9.2,13.6z"/>
	</g>
	<path class="st0" d="M78.6,16.4H59.9V9.5h44.9v6.9H86.1v48.2h-7.5V16.4z"/>
	<path class="st0" d="M115.9,60c-1.4,1.9-3.1,3.4-5.4,4.3c-2.2,0.9-4.5,1.4-6.9,1.4c-1.5,0-3-0.2-4.5-0.6S96.3,64,95,63
		c-1.2-1-2.2-2.2-3-3.7s-1.1-3.4-1.1-5.6c0-4.1,1.4-7.4,4.1-9.9c2.7-2.5,6.7-3.7,11.9-3.7c0.8,0,1.7,0,2.7,0.1
		c0.9,0.1,1.8,0.1,2.7,0.2c0.8,0.1,1.6,0.1,2.2,0.2c0.6,0.1,1.1,0.1,1.3,0.2v-1.4c0-2.9-0.8-4.9-2.5-6.2c-1.6-1.2-3.9-1.9-6.7-1.9
		c-2.8,0-5,0.4-6.6,1.2s-3,1.6-4.1,2.4l-3.3-5c0.6-0.5,1.4-1.1,2.3-1.7c0.9-0.5,1.9-1.1,3.1-1.5c1.2-0.5,2.6-0.9,4.1-1.2
		c1.5-0.3,3.3-0.5,5.2-0.5c4.7,0,8.4,1.2,11.1,3.6s4,5.8,4,10.2v22.4c0,1.3,0,2.5,0.1,3.4h-6.6C115.9,64.6,115.9,60,115.9,60z
		 M115.9,46.4c-0.2-0.1-0.6-0.1-1.2-0.2s-1.3-0.2-2.1-0.2c-0.8-0.1-1.6-0.1-2.5-0.2c-0.9-0.1-1.8-0.1-2.6-0.1c-2,0-3.6,0.2-4.8,0.7
		c-1.2,0.5-2.2,1.1-2.9,1.9c-0.7,0.7-1.2,1.6-1.4,2.5c-0.3,0.9-0.4,1.8-0.4,2.6c0,2.1,0.7,3.7,2,4.8c1.4,1.1,3.2,1.6,5.6,1.6
		c1.4,0,2.6-0.2,3.9-0.7c1.2-0.5,2.3-1.2,3.2-2c0.9-0.8,1.7-1.8,2.3-2.9c0.6-1.1,0.9-2.2,0.9-3.4C115.9,50.8,115.9,46.4,115.9,46.4z
		 M142.1,44.8L129,26.2h8.8l8.8,12.7l8.6-12.7h7.8l-12.7,18l14.5,20.4H156l-10.1-14.5L136,64.6h-8L142.1,44.8z M171.9,53.5
		c1.5,1.8,3,3.1,4.6,4c1.5,0.8,3.4,1.2,5.5,1.2c1.3,0,2.4-0.2,3.5-0.6c1.1-0.4,2-1.1,2.9-1.9c0.8-0.9,1.5-2,2-3.4s0.7-3,0.7-5V9.5
		h7.5v38.9c0,3.2-0.4,5.9-1.3,8.1c-0.9,2.2-2.1,4-3.6,5.5c-1.5,1.4-3.2,2.4-5.2,3.1c-2,0.6-4.1,1-6.3,1c-3.9,0-7-0.7-9.5-2.1
		s-4.5-3.2-6.1-5.5L171.9,53.5L171.9,53.5z M228,60c-1.4,1.9-3.1,3.4-5.4,4.3c-2.2,0.9-4.5,1.4-6.8,1.4c-1.5,0-3-0.2-4.5-0.6
		s-2.8-1.1-4.1-2.1c-1.2-1-2.2-2.2-3-3.7s-1.1-3.4-1.1-5.6c0-4.1,1.4-7.4,4.1-9.9c2.7-2.5,6.7-3.7,11.9-3.7c0.8,0,1.7,0,2.7,0.1
		c0.9,0.1,1.8,0.1,2.7,0.2c0.8,0.1,1.6,0.1,2.2,0.2c0.6,0.1,1.1,0.1,1.3,0.2v-1.4c0-2.9-0.8-4.9-2.5-6.2c-1.6-1.2-3.9-1.9-6.7-1.9
		s-5,0.4-6.6,1.2s-3,1.6-4.1,2.4l-3.3-5c0.6-0.5,1.4-1.1,2.3-1.7c0.9-0.5,1.9-1.1,3.1-1.5c1.2-0.5,2.6-0.9,4.1-1.2
		c1.5-0.3,3.3-0.5,5.2-0.5c4.7,0,8.4,1.2,11.1,3.6c2.7,2.4,4,5.8,4,10.2v22.4c0,1.3,0,2.5,0.1,3.4h-6.6L228,60z M228,46.4
		c-0.2-0.1-0.6-0.1-1.2-0.2s-1.3-0.2-2.1-0.2c-0.8-0.1-1.6-0.1-2.5-0.2c-0.9-0.1-1.8-0.1-2.6-0.1c-2,0-3.6,0.2-4.8,0.7
		s-2.2,1.1-2.9,1.9c-0.7,0.7-1.2,1.6-1.4,2.5c-0.3,0.9-0.4,1.8-0.4,2.6c0,2.1,0.7,3.7,2,4.8c1.4,1.1,3.2,1.6,5.6,1.6
		c1.4,0,2.6-0.2,3.9-0.7c1.2-0.5,2.3-1.2,3.2-2s1.7-1.8,2.3-2.9c0.6-1.1,0.9-2.2,0.9-3.4C228,50.8,228,46.4,228,46.4z M240.5,64.6
		V29.9c0-1.2,0-2.5-0.1-3.7h6.7l0.2,6.2c0.4-0.7,1-1.4,1.6-2.2c0.7-0.8,1.5-1.5,2.5-2.2s2.1-1.2,3.4-1.7s2.7-0.7,4.4-0.7
		c0.8,0,1.5,0.1,2.2,0.2s1.3,0.3,1.8,0.5l-1.6,6.9c-0.9-0.4-2.1-0.6-3.6-0.6s-2.9,0.3-4.2,0.9c-1.3,0.6-2.4,1.4-3.3,2.5
		c-0.9,1.1-1.7,2.3-2.2,3.8c-0.5,1.4-0.8,2.9-0.8,4.5v20.2L240.5,64.6L240.5,64.6L240.5,64.6z"/>
	<path class="st1" d="M274,12.6c0.7,0,1.5,0.1,2.2,0.4c0.7,0.2,1.3,0.6,1.9,1c0.8,0.6,1.4,1.4,1.9,2.3c0.4,0.9,0.7,1.9,0.7,2.9
		c0,0.9-0.2,1.7-0.5,2.6c-0.3,0.8-0.8,1.5-1.4,2.1c-0.7,0.6-1.4,1.1-2.2,1.5c-0.8,0.3-1.6,0.5-2.5,0.5s-1.7-0.2-2.5-0.5
		s-1.5-0.8-2.2-1.5c-0.6-0.6-1.1-1.3-1.4-2.1c-0.3-0.8-0.5-1.6-0.5-2.5c0-0.7,0.1-1.4,0.4-2.1c0.2-0.7,0.6-1.4,1.1-2
		c0.6-0.8,1.4-1.4,2.3-1.9C272,12.8,273,12.6,274,12.6z M279.8,19.3c0-0.8-0.1-1.6-0.4-2.3c-0.3-0.7-0.7-1.3-1.2-1.9
		c-0.5-0.5-1.2-0.9-1.9-1.2c-0.7-0.3-1.5-0.4-2.2-0.4c-0.8,0-1.5,0.1-2.2,0.4c-0.7,0.3-1.3,0.7-1.8,1.2c-0.6,0.6-1,1.2-1.3,1.9
		c-0.3,0.7-0.5,1.5-0.5,2.2c0,0.8,0.1,1.5,0.4,2.2s0.7,1.3,1.2,1.8c0.6,0.5,1.2,1,1.9,1.3c0.7,0.3,1.4,0.4,2.2,0.4
		c0.8,0,1.5-0.1,2.3-0.4c0.7-0.3,1.4-0.7,1.9-1.3c0.5-0.5,0.9-1.1,1.2-1.8C279.7,20.8,279.8,20.1,279.8,19.3z M275.6,19.5l1.7,3.4
		h-1.6l-1.5-3.2h-1.4v3.2h-1.4v-7.5h2.8c1,0,1.8,0.2,2.4,0.5c0.5,0.3,0.8,0.9,0.8,1.5c0,0.5-0.2,1-0.5,1.3
		C276.6,19.1,276.2,19.4,275.6,19.5z M274,18.8c0.7,0,1.2-0.1,1.5-0.3c0.3-0.2,0.4-0.5,0.4-0.9s-0.2-0.8-0.5-1s-0.8-0.3-1.5-0.3
		h-1.2v2.5L274,18.8L274,18.8z"/>
</g>
</svg>
