<?xml version="1.0" encoding="utf-8"?>
<!-- Generator: Adobe Illustrator 24.1.2, SVG Export Plug-In . SVG Version: 6.00 Build 0)  -->
<svg version="1.1" id="Layer_1" xmlns="http://www.w3.org/2000/svg" xmlns:xlink="http://www.w3.org/1999/xlink" x="0px" y="0px"
	 viewBox="0 0 121.7 85" style="enable-background:new 0 0 121.7 85;" xml:space="preserve">
<style type="text/css">
	.st0{fill:#ED2224;}
	.st1{fill:#FFFFFF;}
</style>
<g>
	<path class="st0" d="M119.1,13.3c-1.4-5.2-5.5-9.3-10.7-10.7C98.9,0,60.9,0,60.9,0s-38,0-47.5,2.5C8.2,3.9,4.1,8.1,2.7,13.3
		c-2.5,9.5-2.5,29.2-2.5,29.2s0,19.8,2.5,29.2c1.4,5.2,5.5,9.3,10.7,10.7C22.9,85,60.9,85,60.9,85s38,0,47.5-2.5
		c5.2-1.4,9.3-5.5,10.7-10.7c2.5-9.5,2.5-29.2,2.5-29.2S121.7,22.8,119.1,13.3z"/>
	<polygon class="st1" points="48.8,60.7 80.3,42.5 48.8,24.3 	"/>
</g>
</svg>
